<svg id="Layer_1" data-name="Layer 1" xmlns="http://www.w3.org/2000/svg" viewBox="0 0 132.1 111.63"><defs><style>.cls-1,.cls-2,.cls-3{fill:none;stroke-miterlimit:10;}.cls-1,.cls-2{stroke:#000;}.cls-1{stroke-width:3.9px;}.cls-2,.cls-3{stroke-linecap:round;stroke-width:4.88px;}.cls-3{stroke:#fff;}.cls-4{fill:#fff;}</style></defs><rect class="cls-1" x="3.35" y="3.09" width="126.06" height="105.82" rx="7.33"/><path d="M9.94,3.09H124.08a6.59,6.59,0,0,1,6.59,6.59v18.9a0,0,0,0,1,0,0H3.35a0,0,0,0,1,0,0V9.68A6.59,6.59,0,0,1,9.94,3.09Z"/><line class="cls-2" x1="11.4" y1="44.8" x2="63.39" y2="44.8"/><line class="cls-2" x1="11.4" y1="67.39" x2="63.39" y2="67.39"/><line class="cls-2" x1="11.4" y1="89.98" x2="63.39" y2="89.98"/><line class="cls-3" x1="22.1" y1="14.68" x2="48.02" y2="14.68"/><ellipse class="cls-4" cx="56.11" cy="14.68" rx="2.46" ry="2.59"/><ellipse class="cls-4" cx="14.11" cy="14.68" rx="2.46" ry="2.59"/></svg>