<svg id="Layer_1" data-name="Layer 1" xmlns="http://www.w3.org/2000/svg" viewBox="0 0 132.1 111.63"><defs><style>.cls-1,.cls-2{fill:none;stroke:#000;stroke-miterlimit:10;}.cls-1{stroke-width:3.98px;}.cls-2{stroke-width:0.8px;}</style></defs><path d="M103.6,42.92V96.48a8,8,0,0,1-8,8H16.4a8,8,0,0,1-8-8V33.68a8,8,0,0,1,8-8H92.21l6-6.12a14.67,14.67,0,0,0-2.59-.24H16.4A14.37,14.37,0,0,0,2,33.68v62.8A14.37,14.37,0,0,0,16.4,110.84H95.6A14.37,14.37,0,0,0,110,96.48V36.41Z"/><polygon points="122.17 0.79 68.26 55.93 65.36 67.82 76.76 64.62 130.67 9.48 122.17 0.79"/><line class="cls-1" x1="28.93" y1="22.5" x2="28.93" y2="107.66"/><line class="cls-2" x1="15.26" y1="47.16" x2="20.81" y2="47.16"/><line class="cls-2" x1="15.26" y1="53.33" x2="20.81" y2="53.33"/><line class="cls-2" x1="15.26" y1="59.49" x2="20.81" y2="59.49"/><line class="cls-2" x1="15.26" y1="78.03" x2="20.81" y2="78.03"/><line class="cls-2" x1="15.26" y1="84.2" x2="20.81" y2="84.2"/><line class="cls-2" x1="15.26" y1="90.37" x2="20.81" y2="90.37"/><ellipse class="cls-2" cx="18.04" cy="67.82" rx="2.78" ry="2.84"/></svg>