<svg id="Layer_1" data-name="Layer 1" xmlns="http://www.w3.org/2000/svg" viewBox="0 0 200 200"><path d="M39,151.3c1.94-.42,3.85-.93,5.76-1.43a108.09,108.09,0,0,0,11.2-3.73A71.69,71.69,0,0,0,66.46,141a45.75,45.75,0,0,0,9.15-7,29.85,29.85,0,0,0,3.61-4.36l.38-.58.36-.6c.12-.19.22-.4.33-.6l.17-.3.15-.31.15-.3.14-.31c.09-.2.17-.4.25-.6h0c-.21-.14-.42-.31-.64-.49a5.68,5.68,0,0,1-.65-.65,3.59,3.59,0,0,1-.64-1.12l-.06-.2c0-.08,0-.15-.05-.23a3.79,3.79,0,0,1,0-.49,3.09,3.09,0,0,1,.07-.52,4,4,0,0,1,.17-.49,3.85,3.85,0,0,1,.24-.4,4,4,0,0,1,.26-.32,3,3,0,0,1,.26-.24.5.5,0,0,1,.13-.1l.12-.09a3.53,3.53,0,0,1,.47-.29,3.36,3.36,0,0,1,.43-.2l.07,0,.14,0c.52-.14,1-.3,1.53-.46a12,12,0,0,0,1.33-.49c-.26-.34-.57-.75-.87-1.18a13.12,13.12,0,0,1-1-1.69,10.45,10.45,0,0,1-1-3.91,13.55,13.55,0,0,1,.39-3.85,17.38,17.38,0,0,1,.52-1.78c0-.15.1-.29.16-.43l.17-.45.38-.84a23,23,0,0,1,1.78-3.17A21.89,21.89,0,0,1,87.18,99a18.58,18.58,0,0,1,6.13-4.15,17.72,17.72,0,0,1,3.57-1.08q.91-.18,1.86-.27l1,0h.85c.53,0,1.06,0,1.53,0a6.08,6.08,0,0,0,1.22-.2,1.34,1.34,0,0,0,.64-.34,1.6,1.6,0,0,0,.37-.61l.08-.26a.53.53,0,0,0,0-.12l0-.14c0-.1,0-.19,0-.28l0-.37c0-.49.08-1,.1-1.52a18.76,18.76,0,0,0-.12-3,12.26,12.26,0,0,0-1.9-5.34,9.89,9.89,0,0,0-1.85-2.08,12.2,12.2,0,0,0-2.38-1.59,18.68,18.68,0,0,0-5.73-1.77,33.46,33.46,0,0,0-6.27-.31,48.94,48.94,0,0,0-6.36.72,56.84,56.84,0,0,0-6.29,1.48c-1,.3-2.07.63-3.09,1l-1.53.55-.76.29-.73.3A41.86,41.86,0,0,0,62,82.74a56.94,56.94,0,0,0-5.33,3.7c-1.72,1.33-3.38,2.75-5,4.24s-3.13,3-4.59,4.66-2.87,3.31-4.2,5a75.09,75.09,0,0,0-7,11.07q-1.5,2.91-2.72,6A61.49,61.49,0,0,0,31,123.65,55.09,55.09,0,0,0,29,136.6a50.75,50.75,0,0,0,1.19,13.06c.26,1.18.58,2.34.94,3.48l2-.5C35.08,152.17,37.06,151.75,39,151.3Z"/><path d="M84.87,118.85h0Z"/><path d="M53.72,29.65a45.61,45.61,0,0,0,10.41,2.27c3.6.39,7.28.54,11,.58s7.43,0,11.17-.11c1.87,0,3.74-.07,5.63-.08s3.8,0,5.74.08a37.49,37.49,0,0,1,5.88.73,26.4,26.4,0,0,1,5.72,1.93,31.32,31.32,0,0,1,5.12,3.08,52.14,52.14,0,0,1,4.47,3.72c1.42,1.31,2.75,2.68,4.06,4.06s2.57,2.8,3.79,4.23l1.84,2.16c.61.72,1.2,1.45,1.8,2.18s1.18,1.46,1.76,2.18l.44.55.22.27.23.26.9,1,1.82,2.09c.3.35.62.69.93,1l.95,1c.63.68,1.26,1.36,1.9,2l2,2,1,1c.32.33.67.64,1,1l2,1.89.51.47.52.46,1.05.91,1,.91.52.46.54.43,2.16,1.75c.35.3.72.57,1.09.85l1.11.83,1.11.83c.37.28.76.53,1.14.8.76.52,1.51,1.06,2.28,1.58l2.34,1.49c.39.26.79.48,1.19.72l1.19.7.6.35c.2.12.4.24.6.34l1.23.66,1.22.66,1.24.61a73.25,73.25,0,0,0,10.28,4.17l1.33.42,1.34.37.67.18c.22.07.44.13.67.18l1.35.32c.45.11.91.2,1.36.28s.91.19,1.37.27c.91.15,1.82.31,2.75.41,1.29.16,2.6.29,3.9.36A93.38,93.38,0,0,0,45.24,24.36,22.62,22.62,0,0,0,53.72,29.65Z"/><path d="M29.72,153.5q-.57-1.74-1-3.51a56,56,0,0,1-1.13-6.67,54.67,54.67,0,0,1-.28-6.77,56.49,56.49,0,0,1,.53-6.75,60.08,60.08,0,0,1,1.3-6.65,68.43,68.43,0,0,1,4.67-12.71A76.37,76.37,0,0,1,40.75,98.8c1.31-1.84,2.71-3.63,4.18-5.35s3-3.39,4.63-5a67.42,67.42,0,0,1,10.59-8.63,44.61,44.61,0,0,1,6.08-3.34l.81-.35.79-.32,1.6-.62c1.07-.4,2.16-.77,3.25-1.11a56.14,56.14,0,0,1,13.55-2.54,35.54,35.54,0,0,1,7,.28,22.46,22.46,0,0,1,7,2.13,16,16,0,0,1,3.17,2.1A14.51,14.51,0,0,1,106,79a14.73,14.73,0,0,1,1.71,3.44,17.56,17.56,0,0,1,.84,3.67,23.55,23.55,0,0,1,.14,3.65c0,.6-.07,1.19-.14,1.81l0,.46-.11.54a8.78,8.78,0,0,1-.29,1.09,6.82,6.82,0,0,1-.55,1.12l-.18.28c-.06.09-.14.18-.21.27a4.42,4.42,0,0,1-.47.5,4.94,4.94,0,0,1-1.1.79l-.58.27-.57.2a9.73,9.73,0,0,1-2.07.33c-.64.05-1.22.05-1.8.05h-.82c-.22,0-.46,0-.69,0a14.24,14.24,0,0,0-1.44.2,15.46,15.46,0,0,0-2.82.83,14.63,14.63,0,0,0-4.87,3.24,17.89,17.89,0,0,0-3.41,4.92l-.32.68-.13.33c0,.12-.09.24-.13.35-.16.48-.32.95-.43,1.42a9.49,9.49,0,0,0-.32,2.76,6.48,6.48,0,0,0,.6,2.53,9.7,9.7,0,0,0,.67,1.2c.27.41.58.8,1,1.33a5.21,5.21,0,0,1,.61,1,2.91,2.91,0,0,1,.25,1A2.74,2.74,0,0,1,88,120.6l-.15.28-.16.23-.17.2c0,.06-.1.1-.16.16l-.15.14-.16.12a2.43,2.43,0,0,1-.28.2,6.92,6.92,0,0,1-1,.52,17.32,17.32,0,0,1-1.76.64l-.68.2.23.15.23.13.2.11,1.2.67L85,125.6c0,.13,0,.19-.07.27s0,.15-.07.23-.09.28-.14.42-.09.27-.14.4-.1.26-.16.39-.21.51-.33.75l-.17.38-.19.36-.19.36-.2.35c-.13.23-.26.47-.4.69l-.43.68-.44.66c-.15.23-.31.44-.47.65l-.47.63-.5.62c-.16.2-.33.41-.5.6-.35.39-.69.8-1.06,1.16s-.72.76-1.1,1.12a48.84,48.84,0,0,1-9.93,7.3,73.24,73.24,0,0,1-11.08,5.07c-1.9.7-3.82,1.33-5.75,1.92l-2.91.83-2.92.75c-2,.45-3.92.91-5.9,1.27s-3.92.74-5.86,1.14l-1.82.38c.12.31.24.61.37.92.2.51.45,1,.67,1.49.11.25.25.48.37.73s.25.48.38.72l.41.7.2.35.22.35.44.68.48.66.23.34.25.32.5.64.53.61.27.31.28.3a24.77,24.77,0,0,0,2.35,2.23,29,29,0,0,0,2.63,1.92c.92.57,1.87,1.1,2.85,1.58a36.51,36.51,0,0,0,12.61,3.28A59.77,59.77,0,0,0,71,172.74a79.81,79.81,0,0,0,12.88-2.84q1.58-.5,3.12-1.05c1-.37,2-.81,3-1.26a59.66,59.66,0,0,0,5.76-3.15c1.87-1.14,3.69-2.38,5.47-3.68.44-.32.89-.64,1.32-1s.88-.66,1.31-1c.86-.69,1.72-1.37,2.55-2.09s1.66-1.44,2.49-2.16l1.2-1.12.61-.56.59-.58,1.17-1.15,1.15-1.19.57-.59.55-.6,1.11-1.22a90,90,0,0,0,8-10.41,77.68,77.68,0,0,0,6.13-11.53c.1-.25.22-.5.32-.75l.29-.76.6-1.52c.1-.25.18-.5.27-.76l.27-.77.52-1.54.46-1.56.23-.78.12-.39.09-.39.4-1.58.19-.79c.07-.26.12-.53.17-.8a79.18,79.18,0,0,0,1.73-12.9l0-1.62,0-.81c0-.27,0-.54,0-.81V95.43c0-.54-.05-1.08-.07-1.62l0-.81c0-.26,0-.53-.07-.8l-.14-1.61c-.14-1.07-.24-2.14-.43-3.2l-.13-.79-.07-.4-.08-.39-.31-1.58c-.26-1-.49-2.09-.8-3.11a46.29,46.29,0,0,0-2.15-6,40.32,40.32,0,0,0-3-5.58,28.72,28.72,0,0,0-3.87-4.85l-.54-.53c-.18-.18-.38-.33-.57-.5l-.28-.25-.15-.12-.14-.11-.59-.45a13.62,13.62,0,0,0-2.45-1.42,8.93,8.93,0,0,0-2.55-.64,6.41,6.41,0,0,0-2.49.26,29.16,29.16,0,0,0-5.46,2.79,35,35,0,0,1-6.46,3c-.29.1-.57.19-.87.27l-.87.25c-.59.14-1.17.3-1.76.4l-.89.17-.89.13-.45.07-.44,0-.89.09a41.7,41.7,0,0,1-7.07,0h-.09l-.07,0-2-.38-1-.19-1-.25-1-.25c-.33-.08-.67-.15-1-.26l-2-.6A54.42,54.42,0,0,1,72.89,63a59.84,59.84,0,0,1-7-4.27,60.76,60.76,0,0,1-6.32-5.19,69.76,69.76,0,0,1-5.61-5.93A79.07,79.07,0,0,1,49,41.09c-1.51-2.24-2.9-4.56-4.19-6.93-.64-1.18-1.26-2.38-1.85-3.6s-1-2.22-1.53-3.32A93.39,93.39,0,0,0,24.53,155C26.25,154.45,28,154,29.72,153.5Zm79.75-67a53.56,53.56,0,0,1,2.27,5c3.79,12-6.93,13.71-11.78,12.76-5.57-1.09-7.64.88-9.69,1.59,6.39-8.63,9.34-4.63,16.51-7.2C112.64,96.57,110.46,89.14,109.47,86.5Z"/><path d="M127.61,167.24a3.46,3.46,0,0,0-3.46,3.46c0,.08,0,.15,0,.22a4.53,4.53,0,0,1,6.89,0,1.5,1.5,0,0,0,0-.22A3.47,3.47,0,0,0,127.61,167.24Z"/><path d="M189.15,94.11c-1-.06-1.88-.19-2.82-.3-.47-.06-.93-.14-1.4-.21s-.94-.15-1.4-.24l-1.39-.27-.69-.15-.69-.16-1.38-.32L178,92.09a74.65,74.65,0,0,1-10.66-3.89,87.4,87.4,0,0,1-10-5.33A112,112,0,0,1,139.44,69L137.38,67c-.67-.67-1.32-1.35-2-2l-1-1c-.33-.34-.67-.68-1-1l-1.92-2.1-1-1.05-.24-.27-.23-.27-.46-.53c-.6-.72-1.2-1.44-1.81-2.14s-1.21-1.42-1.83-2.11-1.22-1.4-1.84-2.08c-1.24-1.38-2.51-2.72-3.79-4s-2.6-2.59-4-3.8a35.56,35.56,0,0,0-8.75-6A22.28,22.28,0,0,0,102.72,37a33.73,33.73,0,0,0-5.27-.55c-1.79-.07-3.63,0-5.48,0l-5.59.18c-3.74.12-7.5.24-11.29.26a112.83,112.83,0,0,1-11.44-.48A49,49,0,0,1,52.15,34c-.83-.29-1.66-.62-2.47-1,1,1.84,2.16,3.64,3.35,5.38a73.87,73.87,0,0,0,4.59,6.08A64.69,64.69,0,0,0,62.84,50a60.63,60.63,0,0,0,5.82,4.81,56.05,56.05,0,0,0,6.41,3.92l1.68.82a9.37,9.37,0,0,0,.86.38l.86.37c.29.12.57.26.86.37l.88.33.88.32.44.17.45.14,1.79.56a9.17,9.17,0,0,0,.9.24l.91.23.91.24.92.18,1.78.35a37.45,37.45,0,0,0,6.17.08l.77-.07.38,0,.38-.06.76-.1.76-.14c.5-.08,1-.21,1.49-.32l.73-.2.73-.23c.49-.14,1-.33,1.44-.5s1-.39,1.41-.61c.94-.43,1.87-.92,2.81-1.45s1.9-1.1,3-1.66a19,19,0,0,1,3.5-1.48,10.78,10.78,0,0,1,4.12-.38,8.35,8.35,0,0,1,1,.14,10,10,0,0,1,1,.22l.47.13.24.07.24.09c.31.12.64.23.94.36a17.52,17.52,0,0,1,3.29,2l.74.57.18.14.17.15.35.31c.22.2.46.39.67.61l.65.64a33,33,0,0,1,4.39,5.6,45.25,45.25,0,0,1,3.24,6.21A51.52,51.52,0,0,1,137.43,80c.32,1.11.56,2.24.82,3.36l.33,1.7.08.42.06.43.13.85c.19,1.14.29,2.29.42,3.43l.13,1.71c0,.29,0,.58.06.86l0,.86a68.23,68.23,0,0,1-.06,6.86,80.54,80.54,0,0,1-2,13.51c-.07.27-.12.55-.19.83l-.23.83-.44,1.65-.11.41-.13.41L136,119l-.52,1.63c-.19.53-.39,1.07-.59,1.6l-.29.81c-.1.26-.2.53-.31.79l-.65,1.58-.33.79c-.11.26-.24.52-.35.78a80.27,80.27,0,0,1-6.69,11.86,89.15,89.15,0,0,1-8.51,10.56l-1.17,1.21-.59.61-.6.6L114.23,153,113,154.1l-.62.58-.63.56-1.27,1.12c-.86.72-1.71,1.46-2.6,2.15s-1.77,1.39-2.67,2.08l-1.36,1c-.45.34-.92.65-1.38,1-1.85,1.29-3.75,2.51-5.7,3.64a64.6,64.6,0,0,1-6,3.12l-.78.34-.79.32-.8.31-.8.29c-1.07.37-2.15.71-3.23,1a82.39,82.39,0,0,1-13.2,2.69,62.62,62.62,0,0,1-13.48.25,38.45,38.45,0,0,1-13.07-3.48,33.47,33.47,0,0,1-3-1.66,32,32,0,0,1-2.76-2A27.56,27.56,0,0,1,36.35,165l-.29-.32-.28-.32-.56-.65-.53-.67-.26-.34-.25-.34-.5-.7-.46-.72-.24-.36-.21-.36-.44-.74c-.13-.25-.26-.5-.4-.75s-.27-.5-.39-.76c-.24-.52-.5-1-.71-1.55s-.32-.77-.47-1.16c-.86.19-1.73.4-2.59.61s-1.44.36-2.15.56A93.38,93.38,0,0,0,193.38,100c0-1.91-.06-3.82-.17-5.7C191.85,94.29,190.5,94.23,189.15,94.11ZM127.61,178.4a4.53,4.53,0,0,1-4.53-4.53,4.45,4.45,0,0,1,.7-2.42,3.67,3.67,0,0,1-.08-.75,3.91,3.91,0,0,1,7.82,0,3.67,3.67,0,0,1-.08.75,4.53,4.53,0,0,1-3.83,7Z"/><path d="M82.55,122.6s0,0,0,0Z"/></svg>