<?xml version="1.0" encoding="utf-8"?>
<!-- Generator: Adobe Illustrator 24.2.0, SVG Export Plug-In . SVG Version: 6.00 Build 0)  -->
<svg version="1.1" id="Layer_1" xmlns="http://www.w3.org/2000/svg" xmlns:xlink="http://www.w3.org/1999/xlink" x="0px" y="0px"
	 viewBox="0 0 200 200" style="enable-background:new 0 0 200 200;" xml:space="preserve">
<style type="text/css">
	.st0{fill:#FFFFFF;}
</style>
<g>
	<path class="st0" d="M38.97,151.3c1.93-0.42,3.84-0.93,5.75-1.44c3.81-1.05,7.56-2.27,11.21-3.73c3.64-1.46,7.2-3.12,10.53-5.13
		c3.33-2,6.47-4.3,9.15-7.01c1.33-1.36,2.57-2.8,3.6-4.36l0.38-0.58l0.36-0.6c0.12-0.2,0.23-0.4,0.34-0.6l0.16-0.3l0.15-0.31
		l0.15-0.31l0.14-0.31c0.09-0.2,0.17-0.4,0.25-0.6c0,0-0.01,0-0.01-0.01c-0.21-0.15-0.42-0.31-0.64-0.49
		c-0.22-0.19-0.43-0.39-0.66-0.66c-0.22-0.27-0.46-0.6-0.64-1.12c-0.02-0.06-0.04-0.13-0.06-0.2c-0.02-0.07-0.03-0.15-0.05-0.22
		c-0.03-0.15-0.03-0.33-0.03-0.49c0.01-0.17,0.03-0.35,0.07-0.52c0.05-0.16,0.1-0.34,0.17-0.49c0.07-0.14,0.15-0.29,0.24-0.41
		c0.08-0.11,0.17-0.22,0.26-0.32c0.08-0.08,0.17-0.16,0.26-0.24c0.05-0.04,0.09-0.07,0.13-0.1l0.12-0.09
		c0.17-0.13,0.31-0.2,0.47-0.29c0.15-0.08,0.28-0.14,0.43-0.2l0.07-0.03l0.14-0.04c0.52-0.15,1.03-0.3,1.53-0.46
		c0.47-0.15,0.94-0.32,1.33-0.49c-0.26-0.35-0.57-0.75-0.86-1.18c-0.35-0.52-0.7-1.08-0.98-1.69c-0.58-1.21-0.92-2.58-0.99-3.91
		c-0.07-1.34,0.09-2.63,0.38-3.85c0.14-0.61,0.32-1.2,0.52-1.78c0.05-0.15,0.1-0.29,0.16-0.43l0.17-0.45l0.38-0.84
		c0.52-1.1,1.09-2.16,1.79-3.17c0.69-1.01,1.46-1.97,2.33-2.86c1.73-1.77,3.84-3.2,6.13-4.16c1.15-0.47,2.34-0.84,3.56-1.08
		c0.61-0.12,1.23-0.21,1.87-0.26c0.32-0.03,0.64-0.05,0.98-0.05l0.85,0c0.53-0.01,1.06-0.01,1.53-0.05c0.47-0.04,0.9-0.1,1.22-0.19
		c0.32-0.1,0.51-0.21,0.64-0.34c0.13-0.13,0.25-0.32,0.37-0.62c0.02-0.09,0.05-0.17,0.07-0.25c0.01-0.04,0.03-0.08,0.04-0.13
		l0.02-0.14c0.02-0.09,0.04-0.18,0.06-0.28l0.03-0.37c0.05-0.49,0.08-1.01,0.1-1.52c0.04-1.02,0-2.03-0.12-3.01
		c-0.24-1.96-0.85-3.81-1.89-5.35c-0.52-0.77-1.14-1.47-1.86-2.08c-0.72-0.61-1.51-1.15-2.38-1.59c-1.73-0.89-3.7-1.46-5.73-1.77
		c-2.04-0.31-4.15-0.4-6.27-0.31c-2.12,0.08-4.25,0.34-6.37,0.71c-2.12,0.37-4.22,0.87-6.29,1.48c-1.04,0.3-2.07,0.63-3.09,0.99
		c-0.51,0.18-1.02,0.36-1.53,0.55l-0.76,0.29l-0.73,0.3c-1.94,0.82-3.84,1.82-5.68,2.95c-1.84,1.12-3.61,2.37-5.33,3.7
		c-1.72,1.33-3.38,2.74-4.97,4.23c-1.6,1.49-3.13,3.05-4.59,4.67c-1.47,1.62-2.87,3.3-4.19,5.04c-2.66,3.48-5.03,7.18-7.04,11.07
		c-1.01,1.94-1.92,3.94-2.73,5.97c-0.81,2.03-1.52,4.11-2.11,6.22c-1.19,4.22-1.89,8.57-2.05,12.95c-0.17,4.38,0.23,8.78,1.19,13.06
		c0.26,1.17,0.58,2.33,0.95,3.48c0.68-0.17,1.35-0.34,2.03-0.5C35.08,152.17,37.06,151.75,38.97,151.3z"/>
	<path class="st0" d="M84.87,118.85C84.88,118.84,84.87,118.84,84.87,118.85C84.88,118.84,84.88,118.84,84.87,118.85
		C84.87,118.85,84.87,118.85,84.87,118.85C84.87,118.85,84.87,118.85,84.87,118.85z"/>
	<path class="st0" d="M53.72,29.65c3.27,1.2,6.81,1.87,10.41,2.27c3.6,0.4,7.28,0.54,10.98,0.58c3.7,0.03,7.42-0.04,11.16-0.11
		c1.87-0.03,3.74-0.07,5.63-0.09c1.89-0.02,3.8-0.01,5.74,0.09c1.94,0.1,3.91,0.31,5.88,0.72c1.97,0.42,3.91,1.08,5.73,1.94
		c1.82,0.86,3.53,1.91,5.11,3.07c1.59,1.16,3.07,2.42,4.48,3.73c1.42,1.31,2.74,2.68,4.05,4.06c1.29,1.39,2.57,2.8,3.79,4.23
		c0.62,0.71,1.23,1.43,1.83,2.16c0.61,0.72,1.2,1.45,1.8,2.18c0.6,0.73,1.18,1.46,1.76,2.18l0.44,0.55l0.22,0.27l0.23,0.26
		l0.91,1.04l1.82,2.08c0.3,0.35,0.62,0.69,0.93,1.03l0.95,1.02c0.63,0.68,1.26,1.36,1.9,2.03l1.96,1.97l0.98,0.98
		c0.32,0.33,0.67,0.64,1.01,0.96l2.03,1.9c0.17,0.16,0.34,0.32,0.51,0.47l0.52,0.46l1.05,0.91l1.05,0.91
		c0.18,0.15,0.35,0.31,0.52,0.45l0.54,0.44l2.16,1.75c0.36,0.3,0.73,0.57,1.1,0.85l1.11,0.83l1.11,0.83
		c0.37,0.28,0.76,0.53,1.13,0.8c0.76,0.52,1.51,1.06,2.28,1.57l2.34,1.49c0.39,0.26,0.79,0.48,1.19,0.72l1.2,0.7l0.6,0.35
		c0.2,0.12,0.4,0.23,0.6,0.34l1.22,0.66l1.22,0.66c0.41,0.21,0.83,0.41,1.24,0.61c3.32,1.64,6.75,3.05,10.28,4.17l1.33,0.42
		c0.44,0.13,0.89,0.25,1.34,0.37l0.67,0.18c0.22,0.06,0.45,0.12,0.67,0.17l1.35,0.32c0.45,0.11,0.9,0.2,1.36,0.29
		c0.45,0.09,0.91,0.19,1.36,0.27c0.91,0.15,1.83,0.31,2.75,0.41c1.3,0.16,2.6,0.29,3.91,0.35C189.82,44.96,149.39,6.62,100,6.62
		c-20.46,0-39.38,6.58-54.76,17.74C47.54,26.72,50.48,28.46,53.72,29.65z"/>
	<path class="st0" d="M29.72,153.5c-0.38-1.15-0.71-2.33-0.99-3.51c-0.51-2.2-0.9-4.43-1.13-6.67c-0.24-2.25-0.32-4.51-0.28-6.76
		c0.04-2.26,0.22-4.51,0.53-6.75c0.31-2.24,0.74-4.46,1.3-6.65c1.13-4.38,2.69-8.64,4.66-12.71c1.96-4.07,4.29-7.97,6.93-11.64
		c1.32-1.84,2.71-3.62,4.19-5.34c1.47-1.72,3.01-3.39,4.63-4.98c3.23-3.19,6.74-6.12,10.59-8.63c1.92-1.25,3.95-2.39,6.08-3.34
		l0.81-0.35l0.79-0.32c0.53-0.21,1.06-0.42,1.6-0.62c1.07-0.4,2.15-0.77,3.25-1.11c4.37-1.36,8.9-2.3,13.55-2.55
		c2.32-0.12,4.68-0.07,7.05,0.28c2.36,0.35,4.74,0.99,6.98,2.13c1.12,0.56,2.19,1.27,3.17,2.1c0.98,0.83,1.85,1.82,2.58,2.89
		c0.73,1.07,1.29,2.25,1.71,3.45c0.42,1.2,0.69,2.44,0.84,3.66c0.15,1.23,0.18,2.45,0.14,3.65c-0.03,0.6-0.06,1.19-0.13,1.81
		l-0.05,0.46l-0.1,0.54c-0.06,0.36-0.19,0.73-0.3,1.09c-0.16,0.38-0.3,0.75-0.55,1.12l-0.17,0.28c-0.07,0.09-0.14,0.18-0.21,0.27
		c-0.15,0.18-0.29,0.35-0.47,0.5c-0.34,0.32-0.72,0.58-1.1,0.79c-0.19,0.09-0.39,0.19-0.58,0.27c-0.19,0.07-0.38,0.13-0.57,0.2
		c-0.75,0.21-1.43,0.29-2.07,0.34c-0.64,0.05-1.22,0.04-1.81,0.05l-0.82,0c-0.21,0-0.45,0.01-0.69,0.03
		c-0.47,0.04-0.96,0.11-1.44,0.2c-0.96,0.18-1.91,0.47-2.82,0.83c-1.82,0.74-3.48,1.84-4.87,3.24c-1.39,1.4-2.54,3.08-3.41,4.92
		l-0.32,0.68l-0.13,0.33c-0.04,0.12-0.09,0.24-0.13,0.35c-0.17,0.47-0.32,0.94-0.44,1.41c-0.24,0.94-0.36,1.88-0.32,2.76
		c0.04,0.89,0.23,1.73,0.6,2.53c0.18,0.4,0.41,0.79,0.68,1.2c0.27,0.41,0.58,0.81,0.95,1.33c0.18,0.27,0.39,0.56,0.61,1.05
		c0.1,0.25,0.21,0.56,0.25,0.98c0.04,0.42-0.05,0.93-0.25,1.32c-0.05,0.09-0.1,0.19-0.15,0.27c-0.05,0.08-0.11,0.16-0.16,0.23
		c-0.05,0.07-0.11,0.13-0.16,0.19c-0.06,0.06-0.11,0.11-0.16,0.16c-0.06,0.05-0.11,0.1-0.16,0.14c-0.05,0.04-0.1,0.09-0.15,0.12
		c-0.09,0.07-0.2,0.14-0.28,0.2c-0.37,0.23-0.69,0.39-1,0.52c-0.62,0.27-1.19,0.45-1.76,0.63c-0.23,0.07-0.46,0.14-0.69,0.2
		c0.08,0.05,0.15,0.1,0.23,0.15l0.22,0.13l0.2,0.11l1.2,0.67l-0.27,1.24c-0.03,0.14-0.05,0.19-0.07,0.28
		c-0.02,0.08-0.04,0.15-0.07,0.22c-0.04,0.15-0.09,0.28-0.14,0.42c-0.05,0.14-0.1,0.27-0.15,0.4c-0.05,0.13-0.1,0.26-0.15,0.39
		c-0.11,0.26-0.21,0.51-0.33,0.76l-0.17,0.37l-0.19,0.36l-0.19,0.36l-0.2,0.35c-0.13,0.23-0.26,0.47-0.41,0.69l-0.42,0.68
		l-0.45,0.66c-0.15,0.22-0.31,0.43-0.46,0.65c-0.16,0.21-0.31,0.43-0.47,0.63l-0.5,0.61c-0.17,0.2-0.33,0.41-0.51,0.6
		c-0.35,0.39-0.69,0.79-1.05,1.16c-0.36,0.38-0.72,0.76-1.1,1.11c-2.99,2.91-6.38,5.29-9.93,7.3c-3.55,2.03-7.28,3.67-11.08,5.07
		c-1.9,0.7-3.82,1.33-5.75,1.91c-0.97,0.28-1.94,0.57-2.91,0.83l-2.93,0.75c-1.96,0.45-3.92,0.91-5.89,1.28
		c-1.98,0.4-3.92,0.74-5.86,1.13c-0.61,0.12-1.21,0.25-1.81,0.38c0.12,0.31,0.24,0.62,0.37,0.92c0.2,0.51,0.44,0.99,0.67,1.49
		c0.11,0.25,0.24,0.49,0.37,0.73c0.13,0.24,0.25,0.48,0.38,0.72l0.41,0.7l0.21,0.35l0.22,0.34l0.44,0.68l0.47,0.66l0.24,0.33
		l0.25,0.32l0.5,0.64l0.53,0.62l0.26,0.31l0.28,0.3c0.73,0.8,1.53,1.53,2.36,2.23c0.83,0.69,1.72,1.32,2.63,1.91
		c0.92,0.57,1.87,1.11,2.85,1.58c3.92,1.9,8.25,2.89,12.61,3.28c4.37,0.39,8.79,0.2,13.16-0.37c4.36-0.59,8.69-1.54,12.89-2.84
		c1.05-0.33,2.09-0.68,3.12-1.05c1.03-0.37,2.01-0.8,3-1.26c1.97-0.93,3.89-2,5.76-3.15c1.87-1.14,3.69-2.38,5.47-3.68
		c0.44-0.32,0.89-0.64,1.32-0.98c0.44-0.34,0.88-0.66,1.31-1c0.86-0.69,1.72-1.37,2.55-2.09c0.85-0.7,1.66-1.44,2.49-2.16l1.21-1.12
		l0.6-0.56l0.59-0.58l1.18-1.15l1.15-1.18l0.57-0.59l0.56-0.61l1.11-1.21c2.91-3.28,5.59-6.76,7.97-10.42
		c2.36-3.67,4.43-7.53,6.13-11.53c0.11-0.25,0.22-0.5,0.32-0.75l0.3-0.76l0.59-1.52c0.1-0.25,0.19-0.51,0.28-0.77l0.26-0.77
		c0.17-0.51,0.35-1.03,0.52-1.54l0.46-1.56l0.23-0.78l0.11-0.39l0.1-0.39l0.39-1.58l0.2-0.79c0.06-0.26,0.11-0.53,0.17-0.8
		c0.92-4.26,1.51-8.57,1.72-12.9l0.04-1.62l0.02-0.81c0.01-0.27,0-0.54,0-0.81l-0.02-1.62c-0.01-0.54-0.05-1.08-0.07-1.62L135.51,93
		c-0.01-0.27-0.04-0.54-0.07-0.81l-0.14-1.61c-0.14-1.07-0.24-2.14-0.44-3.2l-0.13-0.8l-0.07-0.4l-0.08-0.39l-0.32-1.58
		c-0.25-1.04-0.49-2.09-0.8-3.11c-0.59-2.05-1.29-4.07-2.15-6.02c-0.86-1.94-1.85-3.82-2.99-5.58c-1.14-1.76-2.42-3.42-3.87-4.85
		l-0.55-0.53c-0.18-0.18-0.38-0.33-0.56-0.5l-0.28-0.25l-0.14-0.12l-0.15-0.11l-0.59-0.45c-0.8-0.56-1.62-1.07-2.45-1.42
		c-0.8-0.33-1.72-0.57-2.55-0.64c-0.84-0.07-1.65,0-2.48,0.26c-1.67,0.5-3.48,1.66-5.47,2.79c-1.98,1.14-4.16,2.24-6.46,2.99
		c-0.29,0.1-0.57,0.19-0.86,0.27l-0.87,0.25c-0.59,0.14-1.17,0.3-1.76,0.4c-0.3,0.06-0.59,0.12-0.89,0.17l-0.89,0.13l-0.45,0.06
		l-0.45,0.05l-0.89,0.09c-2.38,0.21-4.74,0.15-7.06-0.05l-0.1-0.01l-0.07-0.01l-2.02-0.38c-0.34-0.07-0.68-0.12-1.01-0.2l-1-0.25
		l-1-0.25c-0.33-0.08-0.67-0.16-1-0.26l-1.97-0.6c-2.61-0.87-5.16-1.9-7.61-3.15c-2.44-1.26-4.79-2.69-7.03-4.26
		c-2.23-1.59-4.34-3.34-6.33-5.2c-1.99-1.86-3.86-3.85-5.6-5.92c-1.74-2.08-3.37-4.25-4.89-6.49c-1.51-2.24-2.9-4.56-4.19-6.93
		c-0.65-1.18-1.26-2.39-1.85-3.6c-0.53-1.1-1.04-2.22-1.53-3.33C20.22,44.35,6.62,70.59,6.62,100c0,20.56,6.65,39.58,17.91,55
		C26.25,154.45,27.98,153.96,29.72,153.5z M109.47,86.5c0.92,1.8,1.67,3.46,2.27,5.01c3.79,12.03-6.93,13.71-11.78,12.76
		c-5.56-1.09-7.64,0.88-9.68,1.59c6.39-8.63,9.33-4.63,16.5-7.2C112.64,96.57,110.46,89.14,109.47,86.5z"/>
	<path class="st0" d="M127.61,167.24c-1.91,0-3.46,1.55-3.46,3.46c0,0.07,0.01,0.15,0.01,0.22c0.83-0.97,2.07-1.59,3.44-1.59
		c1.38,0,2.61,0.62,3.44,1.59c0-0.07,0.01-0.15,0.01-0.22C131.07,168.79,129.51,167.24,127.61,167.24z"/>
	<path class="st0" d="M189.15,94.11c-0.94-0.07-1.88-0.19-2.82-0.3c-0.47-0.06-0.93-0.14-1.4-0.21c-0.47-0.07-0.93-0.14-1.4-0.24
		l-1.39-0.27c-0.23-0.04-0.46-0.09-0.69-0.15l-0.69-0.16c-0.46-0.11-0.92-0.21-1.38-0.32l-1.37-0.37c-3.64-1.01-7.2-2.33-10.65-3.88
		c-3.45-1.56-6.8-3.34-10.02-5.33c-6.42-4.01-12.42-8.7-17.9-13.91l-2.06-1.96c-0.67-0.67-1.33-1.35-1.99-2.02l-0.99-1.01
		c-0.33-0.34-0.66-0.67-0.98-1.03l-1.92-2.1l-0.96-1.05l-0.24-0.26l-0.23-0.27l-0.45-0.54c-0.6-0.72-1.21-1.44-1.82-2.14
		c-0.61-0.7-1.21-1.41-1.83-2.11c-0.61-0.7-1.22-1.4-1.85-2.08c-1.23-1.38-2.5-2.72-3.79-4.05c-1.3-1.3-2.6-2.6-3.96-3.8
		c-2.72-2.41-5.6-4.58-8.75-5.99c-1.58-0.71-3.21-1.23-4.91-1.56c-1.7-0.33-3.46-0.49-5.26-0.56c-1.8-0.07-3.63-0.04-5.49,0.01
		c-1.85,0.05-3.73,0.11-5.59,0.17c-3.74,0.12-7.5,0.24-11.29,0.26c-3.79,0.01-7.6-0.08-11.44-0.47c-3.83-0.39-7.72-1.07-11.5-2.41
		c-0.83-0.3-1.66-0.63-2.47-0.99c1.05,1.84,2.16,3.64,3.35,5.38c1.43,2.11,2.96,4.14,4.59,6.08c1.64,1.94,3.38,3.78,5.22,5.5
		c1.85,1.72,3.78,3.34,5.82,4.8c2.05,1.45,4.19,2.76,6.41,3.92l1.68,0.83c0.28,0.15,0.57,0.25,0.86,0.38l0.86,0.37
		c0.29,0.12,0.57,0.25,0.86,0.37l0.88,0.33l0.88,0.33l0.44,0.16c0.15,0.05,0.3,0.1,0.45,0.14l1.79,0.56c0.3,0.1,0.6,0.17,0.9,0.25
		l0.91,0.23l0.91,0.23c0.3,0.07,0.61,0.12,0.92,0.19l1.78,0.35c2.07,0.18,4.14,0.24,6.17,0.08l0.77-0.07l0.38-0.04l0.38-0.05
		l0.76-0.1c0.25-0.04,0.5-0.09,0.75-0.14c0.51-0.08,1-0.21,1.49-0.32l0.73-0.2c0.25-0.06,0.49-0.14,0.73-0.22
		c0.49-0.15,0.96-0.33,1.44-0.51c0.47-0.19,0.95-0.39,1.41-0.61c0.94-0.43,1.86-0.92,2.8-1.45c0.94-0.53,1.91-1.1,2.95-1.66
		c1.05-0.56,2.2-1.1,3.5-1.48c1.29-0.39,2.75-0.52,4.12-0.39c0.34,0.04,0.69,0.07,1.01,0.14c0.33,0.07,0.67,0.12,0.98,0.22
		l0.48,0.13l0.24,0.07l0.24,0.09c0.31,0.12,0.64,0.23,0.94,0.36c1.22,0.53,2.29,1.22,3.3,1.95l0.73,0.57l0.18,0.14l0.17,0.15
		l0.34,0.3c0.23,0.2,0.47,0.4,0.68,0.61l0.65,0.64c1.7,1.71,3.13,3.62,4.39,5.61c1.26,1.99,2.32,4.07,3.24,6.21
		c0.92,2.14,1.66,4.34,2.27,6.57c0.32,1.11,0.56,2.24,0.82,3.36l0.32,1.7l0.08,0.42l0.07,0.43l0.13,0.85
		c0.19,1.14,0.29,2.28,0.42,3.42l0.13,1.72c0.02,0.29,0.05,0.57,0.06,0.86l0.03,0.86c0.12,2.29,0.04,4.58-0.06,6.86
		c-0.29,4.56-0.98,9.08-2.03,13.5c-0.06,0.28-0.12,0.55-0.19,0.83l-0.22,0.83l-0.45,1.65l-0.11,0.41l-0.13,0.41l-0.26,0.82
		l-0.52,1.63c-0.19,0.54-0.39,1.07-0.59,1.61l-0.29,0.8c-0.1,0.27-0.19,0.54-0.31,0.8l-0.65,1.58l-0.33,0.79
		c-0.11,0.26-0.24,0.52-0.35,0.78c-1.88,4.15-4.13,8.11-6.68,11.86c-2.57,3.74-5.43,7.26-8.51,10.56l-1.18,1.22l-0.59,0.61
		l-0.6,0.59l-1.21,1.18l-1.24,1.15l-0.62,0.58l-0.63,0.56l-1.27,1.12c-0.87,0.72-1.71,1.46-2.6,2.16c-0.87,0.71-1.77,1.39-2.67,2.07
		c-0.45,0.34-0.91,0.66-1.36,1c-0.45,0.33-0.92,0.65-1.38,0.97c-1.85,1.28-3.74,2.5-5.7,3.63c-1.95,1.13-3.95,2.19-6.02,3.12
		l-0.78,0.34c-0.26,0.11-0.52,0.22-0.79,0.32l-0.8,0.31c-0.27,0.1-0.53,0.19-0.8,0.29c-1.07,0.37-2.14,0.71-3.22,1.03
		c-4.33,1.25-8.74,2.16-13.2,2.69c-4.46,0.53-8.99,0.68-13.48,0.25c-4.49-0.44-8.97-1.49-13.07-3.48c-1.02-0.5-2.02-1.06-2.98-1.66
		c-0.95-0.62-1.88-1.29-2.76-2.02c-0.87-0.74-1.72-1.5-2.49-2.35l-0.29-0.31l-0.28-0.32l-0.56-0.65l-0.53-0.67l-0.26-0.34
		l-0.25-0.35l-0.5-0.7l-0.46-0.72l-0.23-0.36l-0.22-0.37l-0.43-0.74c-0.14-0.25-0.27-0.5-0.4-0.75c-0.13-0.25-0.27-0.5-0.39-0.76
		c-0.24-0.51-0.5-1.02-0.71-1.55c-0.17-0.38-0.32-0.77-0.47-1.16c-0.86,0.2-1.73,0.4-2.59,0.61c-0.72,0.18-1.44,0.37-2.15,0.56
		c17.05,22.43,44.03,36.92,74.38,36.92c51.57,0,93.38-41.81,93.38-93.38c0-1.91-0.06-3.82-0.17-5.7
		C191.85,94.29,190.5,94.23,189.15,94.11z M127.61,178.4c-2.5,0-4.53-2.03-4.53-4.53c0-0.89,0.26-1.72,0.7-2.42
		c-0.05-0.24-0.07-0.49-0.07-0.75c0-2.15,1.75-3.91,3.91-3.91c2.15,0,3.91,1.75,3.91,3.91c0,0.26-0.03,0.51-0.07,0.75
		c0.44,0.7,0.7,1.53,0.7,2.42C132.14,176.37,130.11,178.4,127.61,178.4z"/>
	<path class="st0" d="M82.55,122.6C82.54,122.57,82.54,122.58,82.55,122.6L82.55,122.6z"/>
</g>
</svg>
